<?xml version="1.0" standalone="no"?>
<!DOCTYPE svg PUBLIC "-//W3C//DTD SVG 20010904//EN"
 "http://www.w3.org/TR/2001/REC-SVG-20010904/DTD/svg10.dtd">
<svg version="1.0" xmlns="http://www.w3.org/2000/svg"
 width="541.000000pt" height="610.000000pt" viewBox="0 0 541.000000 610.000000"
 preserveAspectRatio="xMidYMid meet">

<g transform="translate(0.000000,610.000000) scale(0.100000,-0.100000)"
fill="#000000" stroke="none">
<path d="M2598 6069 c-163 -46 -280 -172 -309 -333 -36 -195 73 -396 257 -471
58 -24 83 -28 159 -28 76 0 101 4 159 28 80 33 171 112 211 183 96 170 62 391
-80 520 -62 57 -114 84 -200 107 -75 19 -114 18 -197 -6z"/>
<path d="M2080 5461 c-25 -15 -137 -81 -250 -146 -260 -150 -424 -245 -525
-305 -44 -25 -161 -93 -260 -150 -99 -57 -181 -105 -183 -106 -2 -1 12 -22 30
-46 18 -24 40 -54 49 -67 l15 -24 190 108 c213 122 415 238 709 407 110 63
234 135 275 158 41 24 77 45 79 47 2 1 -7 27 -22 55 -14 29 -28 63 -32 76 -8
28 -19 27 -75 -7z"/>
<path d="M3232 5418 c-17 -39 -29 -75 -25 -79 8 -6 243 -144 588 -344 94 -54
202 -117 240 -140 39 -23 111 -64 160 -93 50 -28 128 -74 175 -102 l85 -50 15
22 c8 12 30 42 48 65 17 24 32 47 32 52 0 5 -30 26 -67 47 -38 21 -131 74
-208 119 -308 179 -981 564 -995 569 -11 5 -24 -13 -48 -66z"/>
<path d="M2532 4693 c-205 -224 -330 -391 -445 -594 l-26 -47 103 -26 c103
-25 288 -52 401 -58 l60 -3 3 408 c1 236 -2 407 -7 407 -5 0 -45 -39 -89 -87z"/>
<path d="M2752 4373 l3 -408 60 3 c175 9 484 65 493 90 9 29 -208 350 -334
492 -138 156 -208 230 -215 230 -5 0 -8 -171 -7 -407z"/>
<path d="M2957 4756 c10 -12 36 -41 58 -66 125 -138 285 -360 371 -512 27 -49
53 -88 57 -88 5 0 23 6 40 14 18 8 68 29 112 46 44 17 128 54 188 82 l107 52
-32 34 c-44 46 -169 148 -243 199 -166 113 -434 222 -619 251 l-56 9 17 -21z"/>
<path d="M380 4764 c-54 -11 -157 -56 -203 -90 -57 -41 -120 -135 -142 -209
-49 -171 17 -371 154 -467 86 -60 152 -82 251 -81 179 0 328 101 396 268 84
206 -13 445 -219 540 -72 33 -176 50 -237 39z"/>
<path d="M2280 4745 c-267 -69 -511 -201 -714 -387 l-79 -72 89 -44 c49 -24
121 -56 159 -72 174 -71 209 -83 213 -71 8 24 140 235 199 319 35 49 100 133
145 187 46 53 96 113 111 131 l29 34 -29 0 c-15 -1 -71 -12 -123 -25z"/>
<path d="M4898 4760 c-50 -9 -160 -59 -193 -88 -140 -122 -192 -299 -136 -464
49 -147 156 -244 312 -284 148 -38 323 25 425 154 115 148 121 351 14 507 -88
128 -268 203 -422 175z"/>
<path d="M1353 4123 c-95 -131 -151 -235 -226 -418 -42 -103 -83 -294 -100
-467 l-5 -48 337 0 336 0 22 168 c13 92 32 203 43 247 22 86 88 284 100 300 4
6 12 24 18 42 10 29 8 32 -16 42 -15 5 -70 27 -122 47 -52 20 -146 61 -210 93
-63 31 -118 57 -121 59 -4 2 -29 -28 -56 -65z"/>
<path d="M3860 4135 c-99 -51 -179 -86 -312 -135 -32 -12 -58 -23 -58 -24 0
-2 11 -28 24 -59 68 -152 138 -420 151 -575 3 -37 8 -86 11 -109 l5 -43 338 0
339 0 -5 68 c-14 192 -76 414 -171 612 -50 106 -192 321 -210 319 -4 0 -54
-25 -112 -54z"/>
<path d="M1991 3902 c-75 -151 -149 -443 -164 -649 l-5 -63 404 0 404 0 0 324
0 324 -77 7 c-204 17 -364 43 -511 84 -31 9 -33 7 -51 -27z"/>
<path d="M3359 3936 c-2 -2 -65 -18 -139 -34 -137 -31 -240 -46 -387 -58 l-83
-7 0 -323 0 -324 402 0 401 0 -6 103 c-10 154 -63 378 -133 557 -25 63 -45 95
-55 86z"/>
<path d="M310 3048 c0 -653 1 -720 16 -714 9 3 47 6 85 6 l69 0 0 705 c0 556
-3 706 -12 709 -7 3 -46 7 -85 10 l-73 5 0 -721z"/>
<path d="M5010 3761 l-75 -6 -3 -707 -2 -708 62 0 c35 0 73 -3 86 -6 l22 -6 0
721 c0 396 -3 720 -7 719 -5 -1 -42 -4 -83 -7z"/>
<path d="M1028 3065 c-13 -13 27 -283 58 -392 59 -207 176 -435 292 -573 l29
-34 94 46 c137 68 224 106 316 140 l82 29 -29 67 c-28 67 -74 200 -103 302
-16 53 -49 246 -62 360 l-7 55 -332 3 c-182 2 -334 1 -338 -3z"/>
<path d="M1829 3063 c-7 -53 33 -306 67 -422 33 -114 102 -299 119 -319 2 -2
47 8 101 22 122 30 288 56 414 65 l95 6 0 325 0 325 -397 3 c-219 1 -398 -1
-399 -5z"/>
<path d="M2755 3057 c-3 -7 -4 -154 -3 -327 l3 -315 60 -2 c93 -4 340 -42 445
-69 l95 -24 15 22 c62 89 163 458 177 641 l6 87 -397 0 c-310 0 -398 -3 -401
-13z"/>
<path d="M3677 3063 c-4 -3 -7 -31 -8 -62 -2 -164 -80 -472 -170 -670 -11 -24
-19 -44 -17 -46 2 -2 57 -24 122 -50 66 -26 175 -74 242 -106 67 -32 124 -59
127 -59 7 0 77 92 125 165 18 27 56 97 83 155 28 58 54 112 59 120 38 74 110
399 110 498 l0 62 -333 0 c-184 0 -337 -3 -340 -7z"/>
<path d="M2320 2265 c-74 -13 -160 -31 -191 -40 l-57 -17 40 -72 c101 -178
242 -371 404 -550 58 -64 107 -116 110 -116 2 0 4 185 4 410 l0 410 -87 -1
c-49 0 -149 -11 -223 -24z"/>
<path d="M2750 1878 l1 -413 70 75 c171 181 353 425 456 611 l31 56 -52 16
c-85 27 -341 67 -427 67 l-79 0 0 -412z"/>
<path d="M326 2169 c-136 -39 -253 -154 -290 -283 -48 -163 14 -367 137 -457
218 -161 517 -102 639 127 83 155 71 319 -34 462 -102 138 -287 200 -452 151z"/>
<path d="M4852 2167 c-320 -97 -410 -497 -163 -725 116 -106 310 -135 457 -68
158 72 249 214 249 386 0 192 -114 347 -298 405 -95 30 -149 31 -245 2z"/>
<path d="M1925 2163 c-41 -11 -248 -98 -335 -142 -111 -55 -106 -44 -42 -104
222 -207 461 -336 761 -412 57 -14 110 -25 118 -23 9 2 -13 35 -63 93 -76 88
-214 270 -265 350 -74 114 -88 138 -115 189 -16 31 -31 55 -34 55 -3 -1 -14
-4 -25 -6z"/>
<path d="M3371 2078 c-110 -195 -187 -303 -360 -508 -49 -57 -68 -86 -58 -88
21 -4 215 45 295 74 195 73 420 208 555 334 42 40 77 76 77 80 0 16 -412 199
-451 200 -3 0 -29 -42 -58 -92z"/>
<path d="M4395 1453 c-33 -20 -116 -69 -185 -108 -138 -80 -371 -215 -555
-322 -66 -38 -178 -104 -250 -145 -194 -112 -206 -120 -203 -127 40 -93 64
-141 70 -141 5 0 95 50 201 112 105 61 248 144 317 183 69 40 195 112 280 162
85 49 228 131 318 182 89 52 162 97 162 102 0 5 -15 28 -32 52 -18 23 -40 52
-48 64 l-15 22 -60 -36z"/>
<path d="M906 1414 c-27 -36 -47 -66 -45 -68 2 -1 177 -103 389 -226 212 -123
500 -290 640 -372 246 -143 255 -147 264 -126 5 13 19 45 32 71 13 27 24 54
24 60 -1 10 -1235 727 -1251 727 -3 0 -27 -29 -53 -66z"/>
<path d="M2640 860 c-239 -43 -394 -263 -351 -497 26 -142 127 -266 259 -318
62 -24 79 -27 173 -23 87 3 113 7 162 30 69 32 157 113 193 177 71 128 71 295
-1 423 -80 143 -276 237 -435 208z"/>
</g>
</svg>
